<svg width="128" height="128" viewBox="0 0 128 128" fill="none" xmlns="http://www.w3.org/2000/svg">
  <!-- Pineapple leaves (crown) -->
  <g transform="translate(64, 20)">
    <!-- Center leaf -->
    <path d="M -3 0 Q -3 -15 0 -20 Q 3 -15 3 0 Z" fill="#2d5016"/>
    <!-- Left leaves -->
    <path d="M -8 5 Q -12 -8 -10 -15 Q -6 -10 -5 2 Z" fill="#3a6b1f"/>
    <path d="M -13 8 Q -18 -3 -16 -12 Q -11 -6 -9 5 Z" fill="#4a8028"/>
    <!-- Right leaves -->
    <path d="M 8 5 Q 12 -8 10 -15 Q 6 -10 5 2 Z" fill="#3a6b1f"/>
    <path d="M 13 8 Q 18 -3 16 -12 Q 11 -6 9 5 Z" fill="#4a8028"/>
  </g>

  <!-- Pineapple body -->
  <ellipse cx="64" cy="70" rx="28" ry="38" fill="#f4a340"/>

  <!-- Pineapple texture (diamond pattern) -->
  <g stroke="#d68910" stroke-width="1.5" fill="none">
    <line x1="50" y1="40" x2="78" y2="40"/>
    <line x1="46" y1="48" x2="82" y2="48"/>
    <line x1="43" y1="56" x2="85" y2="56"/>
    <line x1="41" y1="64" x2="87" y2="64"/>
    <line x1="40" y1="72" x2="88" y2="72"/>
    <line x1="41" y1="80" x2="87" y2="80"/>
    <line x1="43" y1="88" x2="85" y2="88"/>
    <line x1="46" y1="96" x2="82" y2="96"/>

    <line x1="50" y1="36" x2="50" y2="100"/>
    <line x1="57" y1="34" x2="57" y2="102"/>
    <line x1="64" y1="32" x2="64" y2="104"/>
    <line x1="71" y1="34" x2="71" y2="102"/>
    <line x1="78" y1="36" x2="78" y2="100"/>
  </g>

  <!-- Sunglasses frame -->
  <g>
    <!-- Left lens -->
    <ellipse cx="54" cy="62" rx="10" ry="8" fill="#1a1a1a" stroke="#2a2a2a" stroke-width="2"/>
    <!-- Right lens -->
    <ellipse cx="74" cy="62" rx="10" ry="8" fill="#1a1a1a" stroke="#2a2a2a" stroke-width="2"/>
    <!-- Bridge -->
    <line x1="64" y1="62" x2="64" y2="62" stroke="#2a2a2a" stroke-width="2"/>
    <path d="M 64 62 Q 64 60 64 62" stroke="#2a2a2a" stroke-width="2" fill="none"/>
    <!-- Left arm -->
    <line x1="44" y1="62" x2="40" y2="64" stroke="#2a2a2a" stroke-width="2"/>
    <!-- Right arm -->
    <line x1="84" y1="62" x2="88" y2="64" stroke="#2a2a2a" stroke-width="2"/>
  </g>

  <!-- Sunglasses shine/reflection -->
  <ellipse cx="52" cy="60" rx="2" ry="1.5" fill="#555555" opacity="0.6"/>
  <ellipse cx="72" cy="60" rx="2" ry="1.5" fill="#555555" opacity="0.6"/>
</svg>
